<svg id="Layer_1" data-name="Layer 1" xmlns="http://www.w3.org/2000/svg" viewBox="0 0 100 100"><defs><style>.cls-1{fill:none;stroke:#fff;stroke-linecap:round;stroke-linejoin:round;stroke-width:2px;}</style></defs><title>home-solutions03</title><path class="cls-1" d="M57.36,63.49a3.67,3.67,0,0,1,3.38-3.65A24.36,24.36,0,0,0,56.24,49,3.67,3.67,0,0,1,51,43.76a24.36,24.36,0,0,0-10.88-4.5,3.66,3.66,0,0,1-7.29,0A24.35,24.35,0,0,0,22,43.76,3.67,3.67,0,0,1,16.79,49a24.35,24.35,0,0,0-4.5,10.88,3.66,3.66,0,0,1,0,7.29A24.36,24.36,0,0,0,16.79,78,3.67,3.67,0,0,1,22,83.21a24.35,24.35,0,0,0,10.88,4.5,3.66,3.66,0,0,1,7.29,0A24.36,24.36,0,0,0,51,83.21,3.67,3.67,0,0,1,56.24,78a24.36,24.36,0,0,0,4.5-10.88A3.67,3.67,0,0,1,57.36,63.49Z"/><circle class="cls-1" cx="36.51" cy="63.49" r="11.03"/><circle class="cls-1" cx="36.51" cy="63.49" r="3.68"/><path class="cls-1" d="M84.33,30.38a3.67,3.67,0,0,1,3.31-3.64,18.27,18.27,0,0,0-2.78-6.64,3.63,3.63,0,0,1-1.76.47,3.68,3.68,0,0,1-3.68-3.68,3.62,3.62,0,0,1,.47-1.77,18.29,18.29,0,0,0-6.64-2.78,3.66,3.66,0,0,1-7.28,0,18.27,18.27,0,0,0-6.64,2.78,3.61,3.61,0,0,1,.47,1.76,3.68,3.68,0,0,1-3.68,3.68,3.63,3.63,0,0,1-1.76-.47,18.29,18.29,0,0,0-2.78,6.64,3.66,3.66,0,0,1,0,7.29,18.27,18.27,0,0,0,2.78,6.64,3.61,3.61,0,0,1,1.76-.47,3.68,3.68,0,0,1,3.68,3.68,3.62,3.62,0,0,1-.47,1.77A18.29,18.29,0,0,0,66,48.41a3.66,3.66,0,0,1,7.28,0,18.27,18.27,0,0,0,6.64-2.78,3.61,3.61,0,0,1-.47-1.76,3.68,3.68,0,0,1,3.68-3.68,3.61,3.61,0,0,1,1.76.47A18.29,18.29,0,0,0,87.64,34,3.67,3.67,0,0,1,84.33,30.38Z"/><circle class="cls-1" cx="69.62" cy="30.38" r="4.9"/><path class="cls-1" d="M12,46.32V45.1C13.26,25.25,32.29,12,52.45,12H54.9"/><path class="cls-1" d="M53.68,88H54.9C74.75,86.74,88,67.71,88,47.55V45.1"/></svg>