<svg id="Layer_1" data-name="Layer 1" xmlns="http://www.w3.org/2000/svg" viewBox="0 0 100 100"><defs><style>.cls-1{fill:none;stroke:#fff;stroke-linecap:round;stroke-linejoin:round;stroke-width:2px;}</style></defs><title>home-solutions05</title><line class="cls-1" x1="50" y1="64.51" x2="50" y2="88.26"/><polyline class="cls-1" points="63.19 64.51 71.11 86.94 71.11 88.26"/><polyline class="cls-1" points="36.81 64.51 28.89 86.94 28.89 88.26"/><polyline class="cls-1" points="85.62 26.25 85.62 64.51 14.38 64.51 14.38 26.25"/><polygon class="cls-1" points="9.1 22.3 9.1 17.02 40.77 17.02 43.4 11.74 56.6 11.74 59.23 17.02 90.9 17.02 90.9 22.3 9.1 22.3"/><line class="cls-1" x1="46.04" y1="17.02" x2="53.96" y2="17.02"/><line class="cls-1" x1="7.78" y1="88.26" x2="92.22" y2="88.26"/><circle class="cls-1" cx="42.08" cy="34.17" r="1.32"/><circle class="cls-1" cx="55.28" cy="52.64" r="1.32"/><path class="cls-1" d="M48.68,36.81V34.17a6.6,6.6,0,1,0-13.19,0v7.92a6.6,6.6,0,0,1-6.6,6.6H21"/><path class="cls-1" d="M79,38.13H68.47a6.6,6.6,0,0,0-6.6,6.6v7.92a6.6,6.6,0,0,1-13.19,0V50"/><polyline class="cls-1" points="73.75 43.4 79.02 38.13 73.75 32.85"/><line class="cls-1" x1="48.68" y1="39.45" x2="48.68" y2="42.08"/><line class="cls-1" x1="48.68" y1="44.72" x2="48.68" y2="47.36"/><line class="cls-1" x1="18.34" y1="27.57" x2="20.98" y2="27.57"/><line class="cls-1" x1="79.02" y1="27.57" x2="81.66" y2="27.57"/><line class="cls-1" x1="79.02" y1="59.23" x2="81.66" y2="59.23"/><line class="cls-1" x1="18.34" y1="59.23" x2="20.98" y2="59.23"/></svg>