<svg id="Layer_1" data-name="Layer 1" xmlns="http://www.w3.org/2000/svg" viewBox="0 0 100 100"><defs><style>.cls-1{fill:none;stroke:#fff;stroke-linecap:round;stroke-linejoin:round;stroke-width:2px;}</style></defs><title>home-solutions01</title><polyline class="cls-1" points="38 32.5 27 21.5 30 18.5 19 18.5 19 29.5 22 26.5 36 40.5"/><polyline class="cls-1" points="60 64.5 73 77.5 70 80.5 81 80.5 81 69.5 78 72.5 63 57.5"/><polyline class="cls-1" points="62 32.5 73 21.5 70 18.5 81 18.5 81 29.5 78 26.5 64 40.5"/><polyline class="cls-1" points="40 64.5 27 77.5 30 80.5 19 80.5 19 69.5 22 72.5 37 57.5"/><line class="cls-1" x1="50" y1="81.5" x2="50" y2="58.5"/><circle class="cls-1" cx="50" cy="23.5" r="5"/><path class="cls-1" d="M43,81.5v-26H39v-16a7,7,0,0,1,7-7h8a7,7,0,0,1,7,7v16H57v26"/><line class="cls-1" x1="49" y1="36.5" x2="51" y2="36.5"/><line class="cls-1" x1="49" y1="40.5" x2="51" y2="40.5"/></svg>