<svg id="Layer_1" data-name="Layer 1" xmlns="http://www.w3.org/2000/svg" viewBox="0 0 100 100"><defs><style>.cls-1{fill:none;stroke:#fff;stroke-linecap:round;stroke-linejoin:round;stroke-width:2px;}</style></defs><title>home-solutions04</title><line class="cls-1" x1="47.53" y1="83.37" x2="52.47" y2="83.37"/><line class="cls-1" x1="43.82" y1="16.63" x2="41.35" y2="16.63"/><line class="cls-1" x1="46.29" y1="16.63" x2="58.65" y2="16.63"/><line class="cls-1" x1="28.99" y1="21.58" x2="71.01" y2="21.58"/><line class="cls-1" x1="28.99" y1="78.42" x2="71.01" y2="78.42"/><path class="cls-1" d="M71,74.72V84.6a3.72,3.72,0,0,1-3.71,3.71H32.7A3.72,3.72,0,0,1,29,84.6V15.4a3.72,3.72,0,0,1,3.71-3.71H67.3A3.72,3.72,0,0,1,71,15.4V75.87"/><line class="cls-1" x1="48.5" y1="63.48" x2="51.5" y2="63.48"/><line class="cls-1" x1="42.51" y1="63.48" x2="45.51" y2="63.48"/><line class="cls-1" x1="54.49" y1="63.48" x2="57.49" y2="63.48"/><line class="cls-1" x1="39.51" y1="69.47" x2="60.49" y2="69.47"/><circle class="cls-1" cx="50" cy="44.01" r="13.48"/><circle class="cls-1" cx="50" cy="41.01" r="4.49"/><path class="cls-1" d="M56,56V51.5a6,6,0,1,0-12,0V56"/></svg>