<svg id="Layer_1" data-name="Layer 1" xmlns="http://www.w3.org/2000/svg" viewBox="0 0 100 100"><defs><style>.cls-1{fill:none;stroke:#fff;stroke-linecap:round;stroke-linejoin:round;stroke-width:2px;}</style></defs><title>home-solutions02</title><circle class="cls-1" cx="50" cy="53.16" r="3.79"/><path class="cls-1" d="M77.77,80.92H22.23A39.19,39.19,0,1,1,89.13,53.16,39.49,39.49,0,0,1,77.77,80.92Z"/><path class="cls-1" d="M24.76,72.09a31.55,31.55,0,1,1,50.49,0"/><line class="cls-1" x1="50" y1="72.09" x2="50" y2="74.61"/><line class="cls-1" x1="44.95" y1="72.09" x2="44.95" y2="74.61"/><line class="cls-1" x1="55.05" y1="72.09" x2="55.05" y2="74.61"/><line class="cls-1" x1="60.1" y1="72.09" x2="60.1" y2="74.61"/><line class="cls-1" x1="39.9" y1="72.09" x2="39.9" y2="74.61"/><line class="cls-1" x1="18.45" y1="53.16" x2="22.23" y2="53.16"/><line class="cls-1" x1="50" y1="21.6" x2="50" y2="25.39"/><line class="cls-1" x1="81.55" y1="53.16" x2="77.77" y2="53.16"/><line class="cls-1" x1="27.28" y1="30.44" x2="31.07" y2="34.22"/><line class="cls-1" x1="68.93" y1="34.22" x2="72.72" y2="30.44"/><line class="cls-1" x1="52.7" y1="50.27" x2="65.32" y2="37.65"/><path class="cls-1" d="M39.9,60.73a12.62,12.62,0,1,1,20.2,0"/><line class="cls-1" x1="24.76" y1="85.97" x2="75.24" y2="85.97"/></svg>