<svg xmlns="http://www.w3.org/2000/svg" viewBox="0 0 220.82 186.88"><defs><style>.cls-1{fill:#fff;}</style></defs><title>menu</title><g id="Layer_2" data-name="Layer 2"><g id="Capa_1" data-name="Capa 1"><path class="cls-1" d="M109.87,43.83c-29.15,0-58.3,0-87.45,0A22.08,22.08,0,0,1,1.11,28.63C-1.74,19.76,1,9.92,8.88,4.72,12.71,2.2,17.75.25,22.25.23,80.88-.07,139.52,0,198.15.05c12.74,0,22.6,9.7,22.64,21.79,0,12.3-9.94,21.95-23,22Q153.84,43.9,109.87,43.83Z"/><path class="cls-1" d="M110.29,114.83q-43.23,0-86.45,0C10.22,114.82.07,105.59,0,93.2-.08,80.51,10,71,23.82,71q86.7,0,173.41,0c13.48,0,23.56,9.42,23.58,21.88s-10.18,21.92-23.57,21.92h-87Z"/><path class="cls-1" d="M109.9,186.83q-43,0-86,0c-13.9,0-24-9.39-23.92-22S10.16,143,24.2,143q87,0,173.93,0c10.08,0,18.54,6,21.52,14.9s.23,19.21-7.87,24.3a29.19,29.19,0,0,1-14.41,4.38C168.21,187,139,186.83,109.9,186.83Z"/></g></g></svg>