<svg xmlns="http://www.w3.org/2000/svg" viewBox="0 0 398.31 331.49"><defs><style>.cls-1{isolation:isolate;}.cls-2{opacity:0.2;mix-blend-mode:multiply;}.cls-3{fill:#a9a9a9;}</style></defs><title>Asset 6</title><g class="cls-1"><g id="Layer_2" data-name="Layer 2"><g id="Layer_1-2" data-name="Layer 1"><g class="cls-2"><path class="cls-3" d="M58.41,304.59c40.52-36.29,69.17-78.86,63.05-135C108.75,183.83,99,190.81,80.39,193.73,37.94,200.41,7.3,169.88,1,130.08c-7.1-45.11,22.88-87.89,68-95,59.7-9.39,103.18,42.23,111.73,96.63,12.11,77-37.24,160.85-103.17,199.77Zm217-34.14c40.52-36.28,69.17-78.86,63.05-135-12.71,14.24-22.49,21.21-42.4,24.34-41.13,6.47-73.09-23.85-79.35-63.65-7.1-45.11,22.88-87.89,68-95,61-9.6,103.18,42.23,111.73,96.63,12.11,77-35.7,162-101.84,199.57Z"/></g></g></g></g></svg>